#define f0a76f1edf0f4f5597a33c32eb6c1762K6AM6Z9d1ZVRQAuu_width 9
#define f0a76f1edf0f4f5597a33c32eb6c1762K6AM6Z9d1ZVRQAuu_height 9
static char f0a76f1edf0f4f5597a33c32eb6c1762K6AM6Z9d1ZVRQAuu_bits[] = {
  0xEF, 0x01, 0xEF, 0x01, 0xEF, 0x01, 0xEF, 0x01, 0x00, 0x00, 0xEF, 0x01, 
  0xEF, 0x01, 0xEF, 0x01, 0xEF, 0x01, };
