#define 6e31bacf5ba74880f0dba4b4e31ba8844KqL32D87yQ4vk2d_width 9
#define 6e31bacf5ba74880f0dba4b4e31ba8844KqL32D87yQ4vk2d_height 9
static char 6e31bacf5ba74880f0dba4b4e31ba8844KqL32D87yQ4vk2d_bits[] = {
  0x10, 0x00, 0x10, 0x00, 0x10, 0x00, 0x10, 0x00, 0xFF, 0x01, 0x10, 0x00, 
  0x10, 0x00, 0x10, 0x00, 0x10, 0x00, };
